# xmcd CD database file
#
# Track frame offsets:
#	150
#	26795
#	41346
#	64877
#	88381
#	109235
#	135583
#	165850
#	217366
#
# Disc length: 3171 seconds
#
# Revision: 0
# Processed by: cddbd v1.5.2PL0 Copyright (c) Steve Scherf et al.
# Submitted via: CDex 1.70beta2
#
DISCID=810c6109
DTITLE=Svein Olav Herstad - Free The Nightingale
DYEAR=2010
DGENRE=Jazz
TTITLE0=Ain't No Sunshine
TTITLE1=Off Minor
TTITLE2=Moonlight In Vermont
TTITLE3=Alone Together
TTITLE4=Con Alma
TTITLE5=For Moscow Art
TTITLE6=Old Country
TTITLE7=Free The Nightingale
TTITLE8=For Q
EXTD=YEAR: 2010
EXTT0=
EXTT1=
EXTT2=
EXTT3=
EXTT4=
EXTT5=
EXTT6=
EXTT7=
EXTT8=
PLAYORDER=
